# xmcd CD database file generated by Grip 3.1.4
# 
# Track frame offsets:
#       150
#       15037
#       27217
#       38625
#       50400
#       65250
#       83062
#       94012
#       109987
#       121950
#       136912
#       147337
#       159487
# 
# Disc length: 2261 seconds
# 
# Revision: 2
# Processed by: cddbd v1.5.1PL0 Copyright (c) Steve Scherf et al.
# Submitted via: Grip 3.1.4
# 
DISCID=9b08d30d
DTITLE=Jason Carter - On the Move
DYEAR=1900
DGENRE=Country
TTITLE0=On the Move
TTITLE1=Chicken Under the Washtub
TTITLE2=Telluride
TTITLE3=Daisey Mae
TTITLE4=Carter Country
TTITLE5=Look What The Dog Brought Home
TTITLE6=Methodist Preacher
TTITLE7=Tacoma Waltz
TTITLE8=Hiding in the Bayou
TTITLE9=I Could Find a Way
TTITLE10=Pretty Little Indian
TTITLE11=Norman in the Woodland
TTITLE12=Back Up and Push
EXTD=Fiddle Player for Del McCoury Band, a great Bluegrass BAND
EXTT0=
EXTT1=
EXTT2=
EXTT3=
EXTT4=
EXTT5=
EXTT6=
EXTT7=
EXTT8=
EXTT9=
EXTT10=
EXTT11=
EXTT12=
PLAYORDER=
